<mxfile host="app.diagrams.net" modified="2022-11-28T13:20:21.882Z" agent="5.0 (Windows NT 10.0; Win64; x64) AppleWebKit/537.36 (KHTML, like Gecko) Chrome/107.0.0.0 Safari/537.36" etag="NRd3WwBh64S4lfEA5Gf0" version="20.6.0" type="github">
  <diagram id="VxZ70AFHHrWSerUAvP18" name="1 oldal">
    <mxGraphModel dx="2249" dy="1923" grid="1" gridSize="10" guides="1" tooltips="1" connect="1" arrows="1" fold="1" page="1" pageScale="1" pageWidth="827" pageHeight="1169" math="0" shadow="0">
      <root>
        <mxCell id="0" />
        <mxCell id="1" parent="0" />
        <mxCell id="uy7sEMHTyOz7NsWdHE6z-1" value="Futár" style="rounded=0;whiteSpace=wrap;html=1;" parent="1" vertex="1">
          <mxGeometry x="330" y="80" width="120" height="60" as="geometry" />
        </mxCell>
        <mxCell id="uy7sEMHTyOz7NsWdHE6z-2" value="kiszállítás" style="rhombus;whiteSpace=wrap;html=1;" parent="1" vertex="1">
          <mxGeometry x="340" y="270" width="100" height="80" as="geometry" />
        </mxCell>
        <mxCell id="uy7sEMHTyOz7NsWdHE6z-3" value="Pizzázó" style="rounded=0;whiteSpace=wrap;html=1;" parent="1" vertex="1">
          <mxGeometry x="330" y="525" width="120" height="60" as="geometry" />
        </mxCell>
        <mxCell id="uy7sEMHTyOz7NsWdHE6z-5" value="név" style="ellipse;whiteSpace=wrap;html=1;" parent="1" vertex="1">
          <mxGeometry x="170" y="-70" width="90" height="60" as="geometry" />
        </mxCell>
        <mxCell id="uy7sEMHTyOz7NsWdHE6z-6" value="Telefonszám" style="ellipse;whiteSpace=wrap;html=1;" parent="1" vertex="1">
          <mxGeometry x="280" y="-70" width="95" height="60" as="geometry" />
        </mxCell>
        <mxCell id="uy7sEMHTyOz7NsWdHE6z-7" value="&lt;u&gt;ID&lt;/u&gt;" style="ellipse;whiteSpace=wrap;html=1;" parent="1" vertex="1">
          <mxGeometry x="390" y="-70" width="97.5" height="55" as="geometry" />
        </mxCell>
        <mxCell id="uy7sEMHTyOz7NsWdHE6z-8" value="Kiszállítás módja" style="ellipse;whiteSpace=wrap;html=1;" parent="1" vertex="1">
          <mxGeometry x="500" y="-70" width="100" height="60" as="geometry" />
        </mxCell>
        <mxCell id="uy7sEMHTyOz7NsWdHE6z-9" value="" style="endArrow=none;html=1;rounded=0;entryX=0.5;entryY=0;entryDx=0;entryDy=0;exitX=0.5;exitY=1;exitDx=0;exitDy=0;" parent="1" source="uy7sEMHTyOz7NsWdHE6z-5" target="uy7sEMHTyOz7NsWdHE6z-1" edge="1">
          <mxGeometry width="50" height="50" relative="1" as="geometry">
            <mxPoint x="390" y="210" as="sourcePoint" />
            <mxPoint x="440" y="160" as="targetPoint" />
          </mxGeometry>
        </mxCell>
        <mxCell id="uy7sEMHTyOz7NsWdHE6z-10" value="" style="endArrow=none;html=1;rounded=0;exitX=0.5;exitY=0;exitDx=0;exitDy=0;entryX=0.5;entryY=1;entryDx=0;entryDy=0;" parent="1" source="uy7sEMHTyOz7NsWdHE6z-1" target="uy7sEMHTyOz7NsWdHE6z-6" edge="1">
          <mxGeometry width="50" height="50" relative="1" as="geometry">
            <mxPoint x="390" y="210" as="sourcePoint" />
            <mxPoint x="440" y="160" as="targetPoint" />
          </mxGeometry>
        </mxCell>
        <mxCell id="uy7sEMHTyOz7NsWdHE6z-11" value="" style="endArrow=none;html=1;rounded=0;entryX=0.5;entryY=0;entryDx=0;entryDy=0;exitX=0.5;exitY=1;exitDx=0;exitDy=0;" parent="1" source="uy7sEMHTyOz7NsWdHE6z-7" target="uy7sEMHTyOz7NsWdHE6z-1" edge="1">
          <mxGeometry width="50" height="50" relative="1" as="geometry">
            <mxPoint x="390" y="210" as="sourcePoint" />
            <mxPoint x="440" y="160" as="targetPoint" />
          </mxGeometry>
        </mxCell>
        <mxCell id="uy7sEMHTyOz7NsWdHE6z-12" value="" style="endArrow=none;html=1;rounded=0;entryX=0.5;entryY=0;entryDx=0;entryDy=0;exitX=0.5;exitY=1;exitDx=0;exitDy=0;" parent="1" source="uy7sEMHTyOz7NsWdHE6z-8" target="uy7sEMHTyOz7NsWdHE6z-1" edge="1">
          <mxGeometry width="50" height="50" relative="1" as="geometry">
            <mxPoint x="390" y="210" as="sourcePoint" />
            <mxPoint x="440" y="160" as="targetPoint" />
          </mxGeometry>
        </mxCell>
        <mxCell id="uy7sEMHTyOz7NsWdHE6z-13" value="Beszállítás" style="rhombus;whiteSpace=wrap;html=1;" parent="1" vertex="1">
          <mxGeometry x="120" y="515" width="100" height="80" as="geometry" />
        </mxCell>
        <mxCell id="uy7sEMHTyOz7NsWdHE6z-14" value="Elkészítés" style="rhombus;whiteSpace=wrap;html=1;" parent="1" vertex="1">
          <mxGeometry x="560" y="515" width="100" height="80" as="geometry" />
        </mxCell>
        <mxCell id="uy7sEMHTyOz7NsWdHE6z-15" value="Pizza" style="rounded=0;whiteSpace=wrap;html=1;" parent="1" vertex="1">
          <mxGeometry x="770" y="525" width="120" height="60" as="geometry" />
        </mxCell>
        <mxCell id="uy7sEMHTyOz7NsWdHE6z-16" value="Beszállító" style="rounded=0;whiteSpace=wrap;html=1;" parent="1" vertex="1">
          <mxGeometry x="-120" y="525" width="120" height="60" as="geometry" />
        </mxCell>
        <mxCell id="uy7sEMHTyOz7NsWdHE6z-17" value="Rendelés" style="rhombus;whiteSpace=wrap;html=1;" parent="1" vertex="1">
          <mxGeometry x="775" y="730" width="110" height="80" as="geometry" />
        </mxCell>
        <mxCell id="uy7sEMHTyOz7NsWdHE6z-18" value="Vevő" style="rounded=0;whiteSpace=wrap;html=1;" parent="1" vertex="1">
          <mxGeometry x="770" y="940" width="120" height="60" as="geometry" />
        </mxCell>
        <mxCell id="uy7sEMHTyOz7NsWdHE6z-19" value="Birtoklás" style="rhombus;whiteSpace=wrap;html=1;" parent="1" vertex="1">
          <mxGeometry x="485" y="930" width="130" height="80" as="geometry" />
        </mxCell>
        <mxCell id="uy7sEMHTyOz7NsWdHE6z-20" value="Bankkártya" style="rounded=0;whiteSpace=wrap;html=1;" parent="1" vertex="1">
          <mxGeometry x="250" y="940" width="120" height="60" as="geometry" />
        </mxCell>
        <mxCell id="uy7sEMHTyOz7NsWdHE6z-21" value="&lt;u&gt;BeszállítóID&lt;/u&gt;" style="ellipse;whiteSpace=wrap;html=1;" parent="1" vertex="1">
          <mxGeometry x="-310" y="390" width="110" height="50" as="geometry" />
        </mxCell>
        <mxCell id="uy7sEMHTyOz7NsWdHE6z-22" value="Cím" style="ellipse;whiteSpace=wrap;html=1;" parent="1" vertex="1">
          <mxGeometry x="-180" y="390" width="110" height="50" as="geometry" />
        </mxCell>
        <mxCell id="uy7sEMHTyOz7NsWdHE6z-23" value="Név" style="ellipse;whiteSpace=wrap;html=1;" parent="1" vertex="1">
          <mxGeometry x="-50" y="390" width="110" height="50" as="geometry" />
        </mxCell>
        <mxCell id="uy7sEMHTyOz7NsWdHE6z-24" value="Elérhetőség" style="ellipse;whiteSpace=wrap;html=1;" parent="1" vertex="1">
          <mxGeometry x="70" y="390" width="110" height="50" as="geometry" />
        </mxCell>
        <mxCell id="uy7sEMHTyOz7NsWdHE6z-25" value="" style="endArrow=none;html=1;rounded=0;exitX=0.5;exitY=1;exitDx=0;exitDy=0;entryX=0.5;entryY=0;entryDx=0;entryDy=0;" parent="1" source="uy7sEMHTyOz7NsWdHE6z-21" target="uy7sEMHTyOz7NsWdHE6z-16" edge="1">
          <mxGeometry width="50" height="50" relative="1" as="geometry">
            <mxPoint x="10" y="410" as="sourcePoint" />
            <mxPoint x="60" y="360" as="targetPoint" />
          </mxGeometry>
        </mxCell>
        <mxCell id="uy7sEMHTyOz7NsWdHE6z-26" value="" style="endArrow=none;html=1;rounded=0;entryX=0.5;entryY=1;entryDx=0;entryDy=0;exitX=0.5;exitY=0;exitDx=0;exitDy=0;" parent="1" source="uy7sEMHTyOz7NsWdHE6z-16" target="uy7sEMHTyOz7NsWdHE6z-22" edge="1">
          <mxGeometry width="50" height="50" relative="1" as="geometry">
            <mxPoint x="10" y="410" as="sourcePoint" />
            <mxPoint x="60" y="360" as="targetPoint" />
          </mxGeometry>
        </mxCell>
        <mxCell id="uy7sEMHTyOz7NsWdHE6z-27" value="" style="endArrow=none;html=1;rounded=0;entryX=0.5;entryY=1;entryDx=0;entryDy=0;exitX=0.5;exitY=0;exitDx=0;exitDy=0;" parent="1" source="uy7sEMHTyOz7NsWdHE6z-16" target="uy7sEMHTyOz7NsWdHE6z-23" edge="1">
          <mxGeometry width="50" height="50" relative="1" as="geometry">
            <mxPoint x="-60" y="520" as="sourcePoint" />
            <mxPoint x="60" y="360" as="targetPoint" />
          </mxGeometry>
        </mxCell>
        <mxCell id="uy7sEMHTyOz7NsWdHE6z-29" value="" style="endArrow=none;html=1;rounded=0;entryX=0.5;entryY=1;entryDx=0;entryDy=0;exitX=0.5;exitY=0;exitDx=0;exitDy=0;" parent="1" source="uy7sEMHTyOz7NsWdHE6z-16" target="uy7sEMHTyOz7NsWdHE6z-24" edge="1">
          <mxGeometry width="50" height="50" relative="1" as="geometry">
            <mxPoint x="10" y="410" as="sourcePoint" />
            <mxPoint x="60" y="360" as="targetPoint" />
          </mxGeometry>
        </mxCell>
        <mxCell id="uy7sEMHTyOz7NsWdHE6z-31" value="Város" style="ellipse;whiteSpace=wrap;html=1;" parent="1" vertex="1">
          <mxGeometry x="-380" y="210" width="110" height="50" as="geometry" />
        </mxCell>
        <mxCell id="uy7sEMHTyOz7NsWdHE6z-32" value="IRSZ" style="ellipse;whiteSpace=wrap;html=1;" parent="1" vertex="1">
          <mxGeometry x="-240" y="210" width="110" height="50" as="geometry" />
        </mxCell>
        <mxCell id="uy7sEMHTyOz7NsWdHE6z-33" value="Utca" style="ellipse;whiteSpace=wrap;html=1;" parent="1" vertex="1">
          <mxGeometry x="-100" y="210" width="110" height="50" as="geometry" />
        </mxCell>
        <mxCell id="uy7sEMHTyOz7NsWdHE6z-34" value="Házszám" style="ellipse;whiteSpace=wrap;html=1;" parent="1" vertex="1">
          <mxGeometry x="40" y="210" width="110" height="50" as="geometry" />
        </mxCell>
        <mxCell id="uy7sEMHTyOz7NsWdHE6z-35" value="" style="endArrow=none;html=1;rounded=0;entryX=0.5;entryY=1;entryDx=0;entryDy=0;exitX=0.5;exitY=0;exitDx=0;exitDy=0;" parent="1" source="uy7sEMHTyOz7NsWdHE6z-22" target="uy7sEMHTyOz7NsWdHE6z-34" edge="1">
          <mxGeometry width="50" height="50" relative="1" as="geometry">
            <mxPoint x="10" y="310" as="sourcePoint" />
            <mxPoint x="60" y="260" as="targetPoint" />
          </mxGeometry>
        </mxCell>
        <mxCell id="uy7sEMHTyOz7NsWdHE6z-36" value="" style="endArrow=none;html=1;rounded=0;entryX=0.5;entryY=1;entryDx=0;entryDy=0;exitX=0.5;exitY=0;exitDx=0;exitDy=0;" parent="1" source="uy7sEMHTyOz7NsWdHE6z-22" target="uy7sEMHTyOz7NsWdHE6z-31" edge="1">
          <mxGeometry width="50" height="50" relative="1" as="geometry">
            <mxPoint x="10" y="310" as="sourcePoint" />
            <mxPoint x="60" y="260" as="targetPoint" />
          </mxGeometry>
        </mxCell>
        <mxCell id="uy7sEMHTyOz7NsWdHE6z-37" value="" style="endArrow=none;html=1;rounded=0;entryX=0.5;entryY=1;entryDx=0;entryDy=0;exitX=0.5;exitY=0;exitDx=0;exitDy=0;" parent="1" source="uy7sEMHTyOz7NsWdHE6z-22" target="uy7sEMHTyOz7NsWdHE6z-32" edge="1">
          <mxGeometry width="50" height="50" relative="1" as="geometry">
            <mxPoint x="10" y="310" as="sourcePoint" />
            <mxPoint x="60" y="260" as="targetPoint" />
          </mxGeometry>
        </mxCell>
        <mxCell id="uy7sEMHTyOz7NsWdHE6z-38" value="" style="endArrow=none;html=1;rounded=0;entryX=0.5;entryY=1;entryDx=0;entryDy=0;exitX=0.5;exitY=0;exitDx=0;exitDy=0;" parent="1" source="uy7sEMHTyOz7NsWdHE6z-22" target="uy7sEMHTyOz7NsWdHE6z-33" edge="1">
          <mxGeometry width="50" height="50" relative="1" as="geometry">
            <mxPoint x="10" y="310" as="sourcePoint" />
            <mxPoint x="60" y="260" as="targetPoint" />
          </mxGeometry>
        </mxCell>
        <mxCell id="uy7sEMHTyOz7NsWdHE6z-39" value="&lt;u&gt;Kártyaszám&lt;/u&gt;" style="ellipse;whiteSpace=wrap;html=1;" parent="1" vertex="1">
          <mxGeometry x="-20" y="840" width="110" height="50" as="geometry" />
        </mxCell>
        <mxCell id="uy7sEMHTyOz7NsWdHE6z-40" value="Lejárati Dátum" style="ellipse;whiteSpace=wrap;html=1;" parent="1" vertex="1">
          <mxGeometry x="-20" y="910" width="110" height="50" as="geometry" />
        </mxCell>
        <mxCell id="uy7sEMHTyOz7NsWdHE6z-41" value="Bank" style="ellipse;whiteSpace=wrap;html=1;" parent="1" vertex="1">
          <mxGeometry x="-20" y="980" width="110" height="50" as="geometry" />
        </mxCell>
        <mxCell id="uy7sEMHTyOz7NsWdHE6z-42" value="Típus" style="ellipse;whiteSpace=wrap;html=1;" parent="1" vertex="1">
          <mxGeometry x="-20" y="1060" width="110" height="50" as="geometry" />
        </mxCell>
        <mxCell id="uy7sEMHTyOz7NsWdHE6z-43" value="" style="endArrow=none;html=1;rounded=0;entryX=1;entryY=0.5;entryDx=0;entryDy=0;exitX=0;exitY=0.5;exitDx=0;exitDy=0;" parent="1" source="uy7sEMHTyOz7NsWdHE6z-20" target="uy7sEMHTyOz7NsWdHE6z-39" edge="1">
          <mxGeometry width="50" height="50" relative="1" as="geometry">
            <mxPoint x="290" y="1110" as="sourcePoint" />
            <mxPoint x="340" y="1060" as="targetPoint" />
          </mxGeometry>
        </mxCell>
        <mxCell id="uy7sEMHTyOz7NsWdHE6z-44" value="" style="endArrow=none;html=1;rounded=0;entryX=1;entryY=0.5;entryDx=0;entryDy=0;exitX=0;exitY=0.5;exitDx=0;exitDy=0;" parent="1" source="uy7sEMHTyOz7NsWdHE6z-20" target="uy7sEMHTyOz7NsWdHE6z-40" edge="1">
          <mxGeometry width="50" height="50" relative="1" as="geometry">
            <mxPoint x="290" y="1110" as="sourcePoint" />
            <mxPoint x="340" y="1060" as="targetPoint" />
          </mxGeometry>
        </mxCell>
        <mxCell id="uy7sEMHTyOz7NsWdHE6z-45" value="" style="endArrow=none;html=1;rounded=0;exitX=1;exitY=0.5;exitDx=0;exitDy=0;entryX=0;entryY=0.5;entryDx=0;entryDy=0;" parent="1" source="uy7sEMHTyOz7NsWdHE6z-41" target="uy7sEMHTyOz7NsWdHE6z-20" edge="1">
          <mxGeometry width="50" height="50" relative="1" as="geometry">
            <mxPoint x="290" y="1110" as="sourcePoint" />
            <mxPoint x="340" y="1060" as="targetPoint" />
          </mxGeometry>
        </mxCell>
        <mxCell id="uy7sEMHTyOz7NsWdHE6z-46" value="" style="endArrow=none;html=1;rounded=0;entryX=1;entryY=0.5;entryDx=0;entryDy=0;exitX=0;exitY=0.5;exitDx=0;exitDy=0;" parent="1" source="uy7sEMHTyOz7NsWdHE6z-20" target="uy7sEMHTyOz7NsWdHE6z-42" edge="1">
          <mxGeometry width="50" height="50" relative="1" as="geometry">
            <mxPoint x="290" y="1110" as="sourcePoint" />
            <mxPoint x="340" y="1060" as="targetPoint" />
          </mxGeometry>
        </mxCell>
        <mxCell id="uy7sEMHTyOz7NsWdHE6z-47" value="Név" style="ellipse;whiteSpace=wrap;html=1;" parent="1" vertex="1">
          <mxGeometry x="150" y="670" width="110" height="50" as="geometry" />
        </mxCell>
        <mxCell id="uy7sEMHTyOz7NsWdHE6z-48" value="Nyitvatartás" style="ellipse;whiteSpace=wrap;html=1;" parent="1" vertex="1">
          <mxGeometry x="280" y="670" width="110" height="50" as="geometry" />
        </mxCell>
        <mxCell id="uy7sEMHTyOz7NsWdHE6z-49" value="Elérhetőség" style="ellipse;whiteSpace=wrap;html=1;" parent="1" vertex="1">
          <mxGeometry x="410" y="670" width="110" height="50" as="geometry" />
        </mxCell>
        <mxCell id="uy7sEMHTyOz7NsWdHE6z-50" value="&lt;u&gt;PizzázóID&lt;/u&gt;" style="ellipse;whiteSpace=wrap;html=1;" parent="1" vertex="1">
          <mxGeometry x="540" y="670" width="110" height="50" as="geometry" />
        </mxCell>
        <mxCell id="uy7sEMHTyOz7NsWdHE6z-51" value="" style="endArrow=none;html=1;rounded=0;entryX=0.5;entryY=0;entryDx=0;entryDy=0;exitX=0.5;exitY=1;exitDx=0;exitDy=0;" parent="1" source="uy7sEMHTyOz7NsWdHE6z-3" target="uy7sEMHTyOz7NsWdHE6z-47" edge="1">
          <mxGeometry width="50" height="50" relative="1" as="geometry">
            <mxPoint x="290" y="710" as="sourcePoint" />
            <mxPoint x="340" y="660" as="targetPoint" />
          </mxGeometry>
        </mxCell>
        <mxCell id="uy7sEMHTyOz7NsWdHE6z-52" value="" style="endArrow=none;html=1;rounded=0;entryX=0.5;entryY=0;entryDx=0;entryDy=0;exitX=0.5;exitY=1;exitDx=0;exitDy=0;" parent="1" source="uy7sEMHTyOz7NsWdHE6z-3" target="uy7sEMHTyOz7NsWdHE6z-48" edge="1">
          <mxGeometry width="50" height="50" relative="1" as="geometry">
            <mxPoint x="290" y="710" as="sourcePoint" />
            <mxPoint x="340" y="660" as="targetPoint" />
          </mxGeometry>
        </mxCell>
        <mxCell id="uy7sEMHTyOz7NsWdHE6z-53" value="" style="endArrow=none;html=1;rounded=0;entryX=0.5;entryY=0;entryDx=0;entryDy=0;exitX=0.5;exitY=1;exitDx=0;exitDy=0;" parent="1" source="uy7sEMHTyOz7NsWdHE6z-3" target="uy7sEMHTyOz7NsWdHE6z-49" edge="1">
          <mxGeometry width="50" height="50" relative="1" as="geometry">
            <mxPoint x="290" y="710" as="sourcePoint" />
            <mxPoint x="340" y="660" as="targetPoint" />
          </mxGeometry>
        </mxCell>
        <mxCell id="uy7sEMHTyOz7NsWdHE6z-54" value="" style="endArrow=none;html=1;rounded=0;entryX=0.5;entryY=0;entryDx=0;entryDy=0;exitX=0.5;exitY=1;exitDx=0;exitDy=0;" parent="1" source="uy7sEMHTyOz7NsWdHE6z-3" target="uy7sEMHTyOz7NsWdHE6z-50" edge="1">
          <mxGeometry width="50" height="50" relative="1" as="geometry">
            <mxPoint x="290" y="710" as="sourcePoint" />
            <mxPoint x="340" y="660" as="targetPoint" />
          </mxGeometry>
        </mxCell>
        <mxCell id="uy7sEMHTyOz7NsWdHE6z-56" value="Pizzanév" style="ellipse;whiteSpace=wrap;html=1;" parent="1" vertex="1">
          <mxGeometry x="530" y="360" width="110" height="50" as="geometry" />
        </mxCell>
        <mxCell id="uy7sEMHTyOz7NsWdHE6z-57" value="&lt;u&gt;PizzaID&lt;/u&gt;" style="ellipse;whiteSpace=wrap;html=1;" parent="1" vertex="1">
          <mxGeometry x="995" y="360" width="110" height="50" as="geometry" />
        </mxCell>
        <mxCell id="uy7sEMHTyOz7NsWdHE6z-61" value="Feltét" style="ellipse;shape=doubleEllipse;whiteSpace=wrap;html=1;" parent="1" vertex="1">
          <mxGeometry x="650" y="355" width="100" height="60" as="geometry" />
        </mxCell>
        <mxCell id="uy7sEMHTyOz7NsWdHE6z-62" value="Méret" style="ellipse;shape=doubleEllipse;whiteSpace=wrap;html=1;" parent="1" vertex="1">
          <mxGeometry x="880" y="355" width="100" height="60" as="geometry" />
        </mxCell>
        <mxCell id="uy7sEMHTyOz7NsWdHE6z-63" value="Ár" style="ellipse;whiteSpace=wrap;html=1;align=center;dashed=1;" parent="1" vertex="1">
          <mxGeometry x="760" y="365" width="100" height="40" as="geometry" />
        </mxCell>
        <mxCell id="uy7sEMHTyOz7NsWdHE6z-64" value="" style="endArrow=none;html=1;rounded=0;entryX=0.5;entryY=0;entryDx=0;entryDy=0;exitX=0.5;exitY=1;exitDx=0;exitDy=0;" parent="1" source="uy7sEMHTyOz7NsWdHE6z-56" target="uy7sEMHTyOz7NsWdHE6z-15" edge="1">
          <mxGeometry width="50" height="50" relative="1" as="geometry">
            <mxPoint x="290" y="410" as="sourcePoint" />
            <mxPoint x="340" y="360" as="targetPoint" />
          </mxGeometry>
        </mxCell>
        <mxCell id="uy7sEMHTyOz7NsWdHE6z-65" value="" style="endArrow=none;html=1;rounded=0;entryX=0.5;entryY=0;entryDx=0;entryDy=0;exitX=0.5;exitY=1;exitDx=0;exitDy=0;" parent="1" source="uy7sEMHTyOz7NsWdHE6z-61" target="uy7sEMHTyOz7NsWdHE6z-15" edge="1">
          <mxGeometry width="50" height="50" relative="1" as="geometry">
            <mxPoint x="290" y="410" as="sourcePoint" />
            <mxPoint x="340" y="360" as="targetPoint" />
          </mxGeometry>
        </mxCell>
        <mxCell id="uy7sEMHTyOz7NsWdHE6z-66" value="" style="endArrow=none;html=1;rounded=0;entryX=0.5;entryY=0;entryDx=0;entryDy=0;exitX=0.5;exitY=1;exitDx=0;exitDy=0;" parent="1" source="uy7sEMHTyOz7NsWdHE6z-63" target="uy7sEMHTyOz7NsWdHE6z-15" edge="1">
          <mxGeometry width="50" height="50" relative="1" as="geometry">
            <mxPoint x="290" y="410" as="sourcePoint" />
            <mxPoint x="340" y="360" as="targetPoint" />
          </mxGeometry>
        </mxCell>
        <mxCell id="uy7sEMHTyOz7NsWdHE6z-67" value="" style="endArrow=none;html=1;rounded=0;entryX=0.5;entryY=0;entryDx=0;entryDy=0;exitX=0.5;exitY=1;exitDx=0;exitDy=0;" parent="1" source="uy7sEMHTyOz7NsWdHE6z-62" target="uy7sEMHTyOz7NsWdHE6z-15" edge="1">
          <mxGeometry width="50" height="50" relative="1" as="geometry">
            <mxPoint x="290" y="410" as="sourcePoint" />
            <mxPoint x="340" y="360" as="targetPoint" />
          </mxGeometry>
        </mxCell>
        <mxCell id="uy7sEMHTyOz7NsWdHE6z-68" value="" style="endArrow=none;html=1;rounded=0;entryX=0.5;entryY=0;entryDx=0;entryDy=0;exitX=0.5;exitY=1;exitDx=0;exitDy=0;" parent="1" source="uy7sEMHTyOz7NsWdHE6z-57" target="uy7sEMHTyOz7NsWdHE6z-15" edge="1">
          <mxGeometry width="50" height="50" relative="1" as="geometry">
            <mxPoint x="290" y="410" as="sourcePoint" />
            <mxPoint x="340" y="360" as="targetPoint" />
          </mxGeometry>
        </mxCell>
        <mxCell id="uy7sEMHTyOz7NsWdHE6z-69" value="&lt;u&gt;VevőID&lt;/u&gt;" style="ellipse;whiteSpace=wrap;html=1;" parent="1" vertex="1">
          <mxGeometry x="580" y="1110" width="110" height="50" as="geometry" />
        </mxCell>
        <mxCell id="uy7sEMHTyOz7NsWdHE6z-70" value="Név" style="ellipse;whiteSpace=wrap;html=1;" parent="1" vertex="1">
          <mxGeometry x="710" y="1110" width="110" height="50" as="geometry" />
        </mxCell>
        <mxCell id="uy7sEMHTyOz7NsWdHE6z-71" value="Cím" style="ellipse;whiteSpace=wrap;html=1;" parent="1" vertex="1">
          <mxGeometry x="840" y="1110" width="110" height="50" as="geometry" />
        </mxCell>
        <mxCell id="uy7sEMHTyOz7NsWdHE6z-72" value="Telefonszám" style="ellipse;whiteSpace=wrap;html=1;" parent="1" vertex="1">
          <mxGeometry x="970" y="1110" width="110" height="50" as="geometry" />
        </mxCell>
        <mxCell id="uy7sEMHTyOz7NsWdHE6z-73" value="" style="endArrow=none;html=1;rounded=0;entryX=0.5;entryY=0;entryDx=0;entryDy=0;exitX=0.5;exitY=1;exitDx=0;exitDy=0;" parent="1" source="uy7sEMHTyOz7NsWdHE6z-18" target="uy7sEMHTyOz7NsWdHE6z-69" edge="1">
          <mxGeometry width="50" height="50" relative="1" as="geometry">
            <mxPoint x="290" y="1010" as="sourcePoint" />
            <mxPoint x="340" y="960" as="targetPoint" />
          </mxGeometry>
        </mxCell>
        <mxCell id="uy7sEMHTyOz7NsWdHE6z-74" value="" style="endArrow=none;html=1;rounded=0;entryX=0.5;entryY=0;entryDx=0;entryDy=0;exitX=0.5;exitY=1;exitDx=0;exitDy=0;" parent="1" source="uy7sEMHTyOz7NsWdHE6z-18" target="uy7sEMHTyOz7NsWdHE6z-70" edge="1">
          <mxGeometry width="50" height="50" relative="1" as="geometry">
            <mxPoint x="290" y="1010" as="sourcePoint" />
            <mxPoint x="340" y="960" as="targetPoint" />
          </mxGeometry>
        </mxCell>
        <mxCell id="uy7sEMHTyOz7NsWdHE6z-75" value="" style="endArrow=none;html=1;rounded=0;entryX=0.5;entryY=0;entryDx=0;entryDy=0;exitX=0.5;exitY=1;exitDx=0;exitDy=0;" parent="1" source="uy7sEMHTyOz7NsWdHE6z-18" target="uy7sEMHTyOz7NsWdHE6z-71" edge="1">
          <mxGeometry width="50" height="50" relative="1" as="geometry">
            <mxPoint x="290" y="1010" as="sourcePoint" />
            <mxPoint x="340" y="960" as="targetPoint" />
          </mxGeometry>
        </mxCell>
        <mxCell id="uy7sEMHTyOz7NsWdHE6z-76" value="" style="endArrow=none;html=1;rounded=0;entryX=0.5;entryY=0;entryDx=0;entryDy=0;exitX=0.5;exitY=1;exitDx=0;exitDy=0;" parent="1" source="uy7sEMHTyOz7NsWdHE6z-18" target="uy7sEMHTyOz7NsWdHE6z-72" edge="1">
          <mxGeometry width="50" height="50" relative="1" as="geometry">
            <mxPoint x="290" y="1010" as="sourcePoint" />
            <mxPoint x="340" y="960" as="targetPoint" />
          </mxGeometry>
        </mxCell>
        <mxCell id="uy7sEMHTyOz7NsWdHE6z-77" value="Utca" style="ellipse;whiteSpace=wrap;html=1;" parent="1" vertex="1">
          <mxGeometry x="660" y="1290" width="110" height="50" as="geometry" />
        </mxCell>
        <mxCell id="uy7sEMHTyOz7NsWdHE6z-78" value="Házszám" style="ellipse;whiteSpace=wrap;html=1;" parent="1" vertex="1">
          <mxGeometry x="800" y="1290" width="110" height="50" as="geometry" />
        </mxCell>
        <mxCell id="uy7sEMHTyOz7NsWdHE6z-79" value="Város" style="ellipse;whiteSpace=wrap;html=1;" parent="1" vertex="1">
          <mxGeometry x="930" y="1290" width="110" height="50" as="geometry" />
        </mxCell>
        <mxCell id="uy7sEMHTyOz7NsWdHE6z-80" value="IRSZ" style="ellipse;whiteSpace=wrap;html=1;" parent="1" vertex="1">
          <mxGeometry x="1060" y="1290" width="110" height="50" as="geometry" />
        </mxCell>
        <mxCell id="uy7sEMHTyOz7NsWdHE6z-81" value="" style="endArrow=none;html=1;rounded=0;entryX=0.5;entryY=0;entryDx=0;entryDy=0;exitX=0.5;exitY=1;exitDx=0;exitDy=0;" parent="1" source="uy7sEMHTyOz7NsWdHE6z-71" target="uy7sEMHTyOz7NsWdHE6z-77" edge="1">
          <mxGeometry width="50" height="50" relative="1" as="geometry">
            <mxPoint x="620" y="1210" as="sourcePoint" />
            <mxPoint x="670" y="1160" as="targetPoint" />
          </mxGeometry>
        </mxCell>
        <mxCell id="uy7sEMHTyOz7NsWdHE6z-82" value="" style="endArrow=none;html=1;rounded=0;entryX=0.5;entryY=0;entryDx=0;entryDy=0;exitX=0.5;exitY=1;exitDx=0;exitDy=0;" parent="1" source="uy7sEMHTyOz7NsWdHE6z-71" target="uy7sEMHTyOz7NsWdHE6z-78" edge="1">
          <mxGeometry width="50" height="50" relative="1" as="geometry">
            <mxPoint x="620" y="1210" as="sourcePoint" />
            <mxPoint x="670" y="1160" as="targetPoint" />
          </mxGeometry>
        </mxCell>
        <mxCell id="uy7sEMHTyOz7NsWdHE6z-83" value="" style="endArrow=none;html=1;rounded=0;entryX=0.5;entryY=0;entryDx=0;entryDy=0;exitX=0.5;exitY=1;exitDx=0;exitDy=0;" parent="1" source="uy7sEMHTyOz7NsWdHE6z-71" target="uy7sEMHTyOz7NsWdHE6z-79" edge="1">
          <mxGeometry width="50" height="50" relative="1" as="geometry">
            <mxPoint x="620" y="1210" as="sourcePoint" />
            <mxPoint x="670" y="1160" as="targetPoint" />
          </mxGeometry>
        </mxCell>
        <mxCell id="uy7sEMHTyOz7NsWdHE6z-84" value="" style="endArrow=none;html=1;rounded=0;entryX=0.5;entryY=0;entryDx=0;entryDy=0;exitX=0.5;exitY=1;exitDx=0;exitDy=0;" parent="1" source="uy7sEMHTyOz7NsWdHE6z-71" target="uy7sEMHTyOz7NsWdHE6z-80" edge="1">
          <mxGeometry width="50" height="50" relative="1" as="geometry">
            <mxPoint x="900" y="1160" as="sourcePoint" />
            <mxPoint x="670" y="1160" as="targetPoint" />
          </mxGeometry>
        </mxCell>
        <mxCell id="uy7sEMHTyOz7NsWdHE6z-85" value="" style="fontSize=12;html=1;endArrow=ERoneToMany;rounded=0;exitX=0.5;exitY=0;exitDx=0;exitDy=0;entryX=0.5;entryY=1;entryDx=0;entryDy=0;" parent="1" source="uy7sEMHTyOz7NsWdHE6z-2" target="uy7sEMHTyOz7NsWdHE6z-1" edge="1">
          <mxGeometry width="100" height="100" relative="1" as="geometry">
            <mxPoint x="590" y="340" as="sourcePoint" />
            <mxPoint x="690" y="240" as="targetPoint" />
          </mxGeometry>
        </mxCell>
        <mxCell id="uy7sEMHTyOz7NsWdHE6z-86" value="" style="fontSize=12;html=1;endArrow=ERoneToMany;rounded=0;exitX=0.5;exitY=1;exitDx=0;exitDy=0;entryX=0.5;entryY=0;entryDx=0;entryDy=0;" parent="1" source="uy7sEMHTyOz7NsWdHE6z-2" target="uy7sEMHTyOz7NsWdHE6z-3" edge="1">
          <mxGeometry width="100" height="100" relative="1" as="geometry">
            <mxPoint x="590" y="440" as="sourcePoint" />
            <mxPoint x="430" y="490" as="targetPoint" />
          </mxGeometry>
        </mxCell>
        <mxCell id="uy7sEMHTyOz7NsWdHE6z-87" value="" style="edgeStyle=entityRelationEdgeStyle;fontSize=12;html=1;endArrow=ERoneToMany;rounded=0;exitX=1;exitY=0.5;exitDx=0;exitDy=0;entryX=0;entryY=0.5;entryDx=0;entryDy=0;" parent="1" source="uy7sEMHTyOz7NsWdHE6z-13" target="uy7sEMHTyOz7NsWdHE6z-3" edge="1">
          <mxGeometry width="100" height="100" relative="1" as="geometry">
            <mxPoint x="170" y="540" as="sourcePoint" />
            <mxPoint x="270" y="440" as="targetPoint" />
          </mxGeometry>
        </mxCell>
        <mxCell id="uy7sEMHTyOz7NsWdHE6z-88" value="" style="edgeStyle=entityRelationEdgeStyle;fontSize=12;html=1;endArrow=ERoneToMany;rounded=0;exitX=0;exitY=0.5;exitDx=0;exitDy=0;entryX=1;entryY=0.5;entryDx=0;entryDy=0;" parent="1" source="uy7sEMHTyOz7NsWdHE6z-13" target="uy7sEMHTyOz7NsWdHE6z-16" edge="1">
          <mxGeometry width="100" height="100" relative="1" as="geometry">
            <mxPoint x="170" y="540" as="sourcePoint" />
            <mxPoint x="270" y="440" as="targetPoint" />
          </mxGeometry>
        </mxCell>
        <mxCell id="uy7sEMHTyOz7NsWdHE6z-91" value="" style="edgeStyle=entityRelationEdgeStyle;fontSize=12;html=1;endArrow=ERoneToMany;rounded=0;exitX=1;exitY=0.5;exitDx=0;exitDy=0;entryX=0;entryY=0.5;entryDx=0;entryDy=0;" parent="1" source="uy7sEMHTyOz7NsWdHE6z-14" target="uy7sEMHTyOz7NsWdHE6z-15" edge="1">
          <mxGeometry width="100" height="100" relative="1" as="geometry">
            <mxPoint x="170" y="540" as="sourcePoint" />
            <mxPoint x="270" y="440" as="targetPoint" />
          </mxGeometry>
        </mxCell>
        <mxCell id="uy7sEMHTyOz7NsWdHE6z-92" value="" style="fontSize=12;html=1;endArrow=ERoneToMany;rounded=0;exitX=0.5;exitY=0;exitDx=0;exitDy=0;entryX=0.5;entryY=1;entryDx=0;entryDy=0;" parent="1" source="uy7sEMHTyOz7NsWdHE6z-17" target="uy7sEMHTyOz7NsWdHE6z-15" edge="1">
          <mxGeometry width="100" height="100" relative="1" as="geometry">
            <mxPoint x="170" y="640" as="sourcePoint" />
            <mxPoint x="270" y="540" as="targetPoint" />
          </mxGeometry>
        </mxCell>
        <mxCell id="uy7sEMHTyOz7NsWdHE6z-93" value="" style="fontSize=12;html=1;endArrow=ERoneToMany;rounded=0;exitX=0.5;exitY=1;exitDx=0;exitDy=0;entryX=0.5;entryY=0;entryDx=0;entryDy=0;" parent="1" source="uy7sEMHTyOz7NsWdHE6z-17" target="uy7sEMHTyOz7NsWdHE6z-18" edge="1">
          <mxGeometry width="100" height="100" relative="1" as="geometry">
            <mxPoint x="170" y="840" as="sourcePoint" />
            <mxPoint x="270" y="740" as="targetPoint" />
          </mxGeometry>
        </mxCell>
        <mxCell id="uy7sEMHTyOz7NsWdHE6z-95" value="" style="edgeStyle=entityRelationEdgeStyle;fontSize=12;html=1;endArrow=ERone;endFill=1;rounded=0;exitX=0;exitY=0.5;exitDx=0;exitDy=0;entryX=1;entryY=0.5;entryDx=0;entryDy=0;" parent="1" source="uy7sEMHTyOz7NsWdHE6z-19" target="uy7sEMHTyOz7NsWdHE6z-20" edge="1">
          <mxGeometry width="100" height="100" relative="1" as="geometry">
            <mxPoint x="170" y="1040" as="sourcePoint" />
            <mxPoint x="270" y="940" as="targetPoint" />
          </mxGeometry>
        </mxCell>
        <mxCell id="8PRMlgQmjs8szZSfLF4Y-1" value="" style="edgeStyle=entityRelationEdgeStyle;fontSize=12;html=1;endArrow=ERoneToMany;rounded=0;entryX=1;entryY=0.5;entryDx=0;entryDy=0;exitX=0;exitY=0.5;exitDx=0;exitDy=0;" edge="1" parent="1" source="uy7sEMHTyOz7NsWdHE6z-14" target="uy7sEMHTyOz7NsWdHE6z-3">
          <mxGeometry width="100" height="100" relative="1" as="geometry">
            <mxPoint x="440" y="660" as="sourcePoint" />
            <mxPoint x="540" y="560" as="targetPoint" />
          </mxGeometry>
        </mxCell>
        <mxCell id="8PRMlgQmjs8szZSfLF4Y-3" value="" style="edgeStyle=entityRelationEdgeStyle;fontSize=12;html=1;endArrow=ERone;endFill=1;rounded=0;exitX=1;exitY=0.5;exitDx=0;exitDy=0;entryX=0;entryY=0.5;entryDx=0;entryDy=0;" edge="1" parent="1" source="uy7sEMHTyOz7NsWdHE6z-19" target="uy7sEMHTyOz7NsWdHE6z-18">
          <mxGeometry width="100" height="100" relative="1" as="geometry">
            <mxPoint x="440" y="860" as="sourcePoint" />
            <mxPoint x="540" y="760" as="targetPoint" />
          </mxGeometry>
        </mxCell>
      </root>
    </mxGraphModel>
  </diagram>
</mxfile>
